<svg version="1.1" xmlns="http://www.w3.org/2000/svg" viewBox="0 0 746.8496552705765 823.5261958837509" width="1493.699310541153" height="1647.0523917675018">
  <!-- svg-source:excalidraw -->
  
  <defs>
    <style class="style-fonts">
      @font-face {
        font-family: "Virgil";
        src: url("https://excalidraw.com/Virgil.woff2");
      }
      @font-face {
        font-family: "Cascadia";
        src: url("https://excalidraw.com/Cascadia.woff2");
      }
    </style>
  </defs>
  <rect x="0" y="0" width="746.8496552705765" height="823.5261958837509" fill="#ffffff"></rect><g transform="translate(10 10) rotate(0 166 34.5)"><text x="0" y="18" font-family="Helvetica, Segoe UI Emoji" font-size="20px" fill="#000000" text-anchor="start" style="white-space: pre;" direction="ltr">Alexei (GCP)</text><text x="0" y="41" font-family="Helvetica, Segoe UI Emoji" font-size="20px" fill="#000000" text-anchor="start" style="white-space: pre;" direction="ltr"></text><text x="0" y="64" font-family="Helvetica, Segoe UI Emoji" font-size="20px" fill="#000000" text-anchor="start" style="white-space: pre;" direction="ltr">Alexei port to Google Cloud Platform.</text></g><g stroke-linecap="round"><g transform="translate(136.9572411775589 87.03379571437836) rotate(0 100 0)"><path d="M0 0 C33.33 0, 166.67 0, 200 0" stroke="#000000" stroke-width="1.5" fill="none" stroke-dasharray="1.5 7"></path></g></g><mask></mask><g stroke-linecap="round"><g transform="translate(116.9572411775589 253.20206487178802) rotate(0 3.5534204595488177 64.5)"><path d="M0 0 C-4.52 16.86, -32.94 79.67, -27.11 101.17 C-21.27 122.67, 24.65 124.36, 35 129" stroke="#000000" stroke-width="1.5" fill="none" stroke-dasharray="1.5 7"></path></g><g transform="translate(116.9572411775589 253.20206487178802) rotate(0 3.5534204595488177 64.5)"><path d="M5.2 132.49 C12.69 131.62, 20.18 130.74, 35 129" stroke="#000000" stroke-width="1.5" fill="none" stroke-dasharray="1.5 5"></path></g><g transform="translate(116.9572411775589 253.20206487178802) rotate(0 3.5534204595488177 64.5)"><path d="M9.93 112.52 C16.23 116.66, 22.53 120.8, 35 129" stroke="#000000" stroke-width="1.5" fill="none" stroke-dasharray="1.5 5"></path></g></g><mask></mask><g transform="translate(187.9572411775589 395.72758519649506) rotate(0 19.5 11.5)"><text x="0" y="18" font-family="Helvetica, Segoe UI Emoji" font-size="20px" fill="#000000" text-anchor="start" style="white-space: pre;" direction="ltr">logs</text></g><g stroke-linecap="round" transform="translate(167.9572411775589 380.72758519649506) rotate(0 39.5 26.5)"><path d="M79 26.5 C79 27.88, 78.84 29.28, 78.51 30.65 C78.19 32.01, 77.7 33.37, 77.07 34.69 C76.43 36, 75.63 37.3, 74.69 38.53 C73.76 39.76, 72.67 40.96, 71.46 42.08 C70.25 43.19, 68.89 44.26, 67.43 45.24 C65.97 46.22, 64.38 47.13, 62.72 47.94 C61.05 48.75, 59.27 49.48, 57.43 50.11 C55.6 50.74, 53.67 51.28, 51.71 51.7 C49.75 52.13, 47.71 52.46, 45.68 52.67 C43.64 52.89, 41.56 53, 39.5 53 C37.44 53, 35.36 52.89, 33.32 52.67 C31.29 52.46, 29.25 52.13, 27.29 51.7 C25.33 51.28, 23.4 50.74, 21.57 50.11 C19.73 49.48, 17.95 48.75, 16.28 47.94 C14.62 47.13, 13.03 46.22, 11.57 45.24 C10.11 44.26, 8.75 43.19, 7.54 42.08 C6.33 40.96, 5.24 39.76, 4.31 38.53 C3.37 37.3, 2.57 36, 1.93 34.69 C1.3 33.37, 0.81 32.01, 0.49 30.65 C0.16 29.28, 0 27.88, 0 26.5 C0 25.12, 0.16 23.72, 0.49 22.35 C0.81 20.99, 1.3 19.63, 1.93 18.31 C2.57 17, 3.37 15.7, 4.31 14.47 C5.24 13.24, 6.33 12.04, 7.54 10.92 C8.75 9.81, 10.11 8.74, 11.57 7.76 C13.03 6.78, 14.62 5.87, 16.28 5.06 C17.95 4.25, 19.73 3.52, 21.57 2.89 C23.4 2.26, 25.33 1.72, 27.29 1.3 C29.25 0.87, 31.29 0.54, 33.32 0.33 C35.36 0.11, 37.44 0, 39.5 0 C41.56 0, 43.64 0.11, 45.68 0.33 C47.71 0.54, 49.75 0.87, 51.71 1.3 C53.67 1.72, 55.6 2.26, 57.43 2.89 C59.27 3.52, 61.05 4.25, 62.72 5.06 C64.38 5.87, 65.97 6.78, 67.43 7.76 C68.89 8.74, 70.25 9.81, 71.46 10.92 C72.67 12.04, 73.76 13.24, 74.69 14.47 C75.63 15.7, 76.43 17, 77.07 18.31 C77.7 19.63, 78.19 20.99, 78.51 22.35 C78.84 23.72, 78.92 25.81, 79 26.5 C79.08 27.19, 79.08 25.81, 79 26.5" stroke="#000000" stroke-width="1.5" fill="none" stroke-dasharray="1.5 7"></path></g><g transform="translate(198.84965527057648 453.72206020355225) rotate(0 105 11.5)"><text x="0" y="18" font-family="Helvetica, Segoe UI Emoji" font-size="20px" fill="#000000" text-anchor="start" style="white-space: pre;" direction="ltr">google_storage_bucket</text></g><g transform="translate(213.84965527057648 489.5261958837509) rotate(0 261.5 34.5)"><text x="0" y="18" font-family="Helvetica, Segoe UI Emoji" font-size="20px" fill="#000000" text-anchor="start" style="white-space: pre;" direction="ltr">Logs bucket</text><text x="0" y="41" font-family="Helvetica, Segoe UI Emoji" font-size="20px" fill="#000000" text-anchor="start" style="white-space: pre;" direction="ltr"></text><text x="0" y="64" font-family="Helvetica, Segoe UI Emoji" font-size="20px" fill="#000000" text-anchor="start" style="white-space: pre;" direction="ltr">Applied to each environment =&gt; manifest { dev | qa | prod }</text></g><g transform="translate(87.4572411775589 191.53379571437836) rotate(0 39 11.5)"><text x="0" y="18" font-family="Helvetica, Segoe UI Emoji" font-size="20px" fill="#000000" text-anchor="start" style="white-space: pre;" direction="ltr">modules</text></g><g stroke-linecap="round" transform="translate(62.9572411775589 183.03379571437836) rotate(0 63.5 20)"><path d="M10 0 M10 0 C46.97 0, 83.94 0, 117 0 M117 0 C123.67 0, 127 3.33, 127 10 M127 10 C127 16.96, 127 23.92, 127 30 M127 30 C127 36.67, 123.67 40, 117 40 M117 40 C93.43 40, 69.87 40, 10 40 M10 40 C3.33 40, 0 36.67, 0 30 M0 30 C0 23.76, 0 17.52, 0 10 M0 10 C0 3.33, 3.33 0, 10 0" stroke="#000000" stroke-width="1.5" fill="none" stroke-dasharray="1.5 7"></path></g><g transform="translate(212.9572411775589 191.72758519649506) rotate(0 197 11.5)"><text x="0" y="18" font-family="Helvetica, Segoe UI Emoji" font-size="20px" fill="#000000" text-anchor="start" style="white-space: pre;" direction="ltr">Summary of the Terraform module structure.</text></g><g stroke-linecap="round"><g transform="translate(105.23800992831957 246.79103016853333) rotate(0 -10.5081482170404 190)"><path d="M0 0 C-9.87 43.75, -65.67 199.19, -59.22 262.52 C-52.76 325.86, 22.4 360.42, 38.72 380" stroke="#000000" stroke-width="1.5" fill="none" stroke-dasharray="1.5 7"></path></g><g transform="translate(105.23800992831957 246.79103016853333) rotate(0 -10.5081482170404 190)"><path d="M10.37 370.19 C21.7 374.11, 33.03 378.03, 38.72 380" stroke="#000000" stroke-width="1.5" fill="none" stroke-dasharray="1.5 5"></path></g><g transform="translate(105.23800992831957 246.79103016853333) rotate(0 -10.5081482170404 190)"><path d="M23.31 354.26 C29.47 364.55, 35.63 374.84, 38.72 380" stroke="#000000" stroke-width="1.5" fill="none" stroke-dasharray="1.5 5"></path></g></g><mask></mask><g transform="translate(201.9572411775589 634.227585196495) rotate(0 39 11.5)"><text x="0" y="18" font-family="Helvetica, Segoe UI Emoji" font-size="20px" fill="#000000" text-anchor="start" style="white-space: pre;" direction="ltr">releases</text></g><g stroke-linecap="round" transform="translate(168.9572411775589 619.727585196495) rotate(0 72 26)"><path d="M144 26 C144 27.13, 143.79 28.27, 143.38 29.39 C142.98 30.52, 142.36 31.64, 141.55 32.73 C140.74 33.82, 139.72 34.9, 138.52 35.95 C137.32 36.99, 135.92 38.02, 134.35 39 C132.79 39.98, 131.03 40.93, 129.12 41.83 C127.21 42.73, 125.13 43.58, 122.91 44.38 C120.7 45.18, 118.32 45.94, 115.83 46.63 C113.35 47.32, 110.71 47.95, 108 48.52 C105.29 49.08, 102.45 49.59, 99.55 50.02 C96.66 50.45, 93.66 50.82, 90.63 51.11 C87.61 51.41, 84.5 51.63, 81.4 51.78 C78.29 51.93, 75.13 52, 72 52 C68.87 52, 65.71 51.93, 62.6 51.78 C59.5 51.63, 56.39 51.41, 53.37 51.11 C50.34 50.82, 47.34 50.45, 44.45 50.02 C41.55 49.59, 38.71 49.08, 36 48.52 C33.29 47.95, 30.65 47.32, 28.17 46.63 C25.68 45.94, 23.3 45.18, 21.09 44.38 C18.87 43.58, 16.79 42.73, 14.88 41.83 C12.97 40.93, 11.21 39.98, 9.65 39 C8.08 38.02, 6.68 36.99, 5.48 35.95 C4.28 34.9, 3.26 33.82, 2.45 32.73 C1.64 31.64, 1.02 30.52, 0.62 29.39 C0.21 28.27, 0 27.13, 0 26 C0 24.87, 0.21 23.73, 0.62 22.61 C1.02 21.48, 1.64 20.36, 2.45 19.27 C3.26 18.18, 4.28 17.1, 5.48 16.05 C6.68 15.01, 8.08 13.98, 9.65 13 C11.21 12.02, 12.97 11.07, 14.88 10.17 C16.79 9.27, 18.87 8.42, 21.09 7.62 C23.3 6.82, 25.68 6.06, 28.17 5.37 C30.65 4.68, 33.29 4.05, 36 3.48 C38.71 2.92, 41.55 2.41, 44.45 1.98 C47.34 1.55, 50.34 1.18, 53.37 0.89 C56.39 0.59, 59.5 0.37, 62.6 0.22 C65.71 0.07, 68.87 0, 72 0 C75.13 0, 78.29 0.07, 81.4 0.22 C84.5 0.37, 87.61 0.59, 90.63 0.89 C93.66 1.18, 96.66 1.55, 99.55 1.98 C102.45 2.41, 105.29 2.92, 108 3.48 C110.71 4.05, 113.35 4.68, 115.83 5.37 C118.32 6.06, 120.7 6.82, 122.91 7.62 C125.13 8.42, 127.21 9.27, 129.12 10.17 C131.03 11.07, 132.79 12.02, 134.35 13 C135.92 13.98, 137.32 15.01, 138.52 16.05 C139.72 17.1, 140.74 18.18, 141.55 19.27 C142.36 20.36, 142.98 21.48, 143.38 22.61 C143.79 23.73, 143.9 25.43, 144 26 C144.1 26.57, 144.1 25.43, 144 26" stroke="#000000" stroke-width="1.5" fill="none" stroke-dasharray="1.5 7"></path></g><g transform="translate(203.84965527057648 705.9241265058517) rotate(0 105 11.5)"><text x="0" y="18" font-family="Helvetica, Segoe UI Emoji" font-size="20px" fill="#000000" text-anchor="start" style="white-space: pre;" direction="ltr">google_storage_bucket</text></g><g transform="translate(227.84965527057648 744.5261958837509) rotate(0 211 34.5)"><text x="0" y="18" font-family="Helvetica, Segoe UI Emoji" font-size="20px" fill="#000000" text-anchor="start" style="white-space: pre;" direction="ltr">Releases bucket</text><text x="0" y="41" font-family="Helvetica, Segoe UI Emoji" font-size="20px" fill="#000000" text-anchor="start" style="white-space: pre;" direction="ltr"></text><text x="0" y="64" font-family="Helvetica, Segoe UI Emoji" font-size="20px" fill="#000000" text-anchor="start" style="white-space: pre;" direction="ltr">Applied globally to the organization =&gt; locals { }</text></g></svg>