<svg version="1.1" xmlns="http://www.w3.org/2000/svg" viewBox="0 0 2315 1235.25" width="4630" height="2470.5">
  <!-- svg-source:excalidraw -->
  
  <defs>
    <style class="style-fonts">
      @font-face {
        font-family: "Virgil";
        src: url("https://excalidraw.com/Virgil.woff2");
      }
      @font-face {
        font-family: "Cascadia";
        src: url("https://excalidraw.com/Cascadia.woff2");
      }
    </style>
  </defs>
  <rect x="0" y="0" width="2315" height="1235.25" fill="#ffffff"></rect><g transform="translate(14 138.5) rotate(0 110.5 34.5)"><text x="0" y="18" font-family="Helvetica, Segoe UI Emoji" font-size="20px" fill="#000000" text-anchor="start" style="white-space: pre;" direction="ltr">Warren Rhem</text><text x="0" y="41" font-family="Helvetica, Segoe UI Emoji" font-size="20px" fill="#000000" text-anchor="start" style="white-space: pre;" direction="ltr">---------------------------------</text><text x="0" y="64" font-family="Helvetica, Segoe UI Emoji" font-size="20px" fill="#000000" text-anchor="start" style="white-space: pre;" direction="ltr">Data Engineer</text></g><g transform="translate(63 436) rotate(0 32 11.5)"><text x="0" y="18" font-family="Helvetica, Segoe UI Emoji" font-size="20px" fill="#000000" text-anchor="start" style="white-space: pre;" direction="ltr">Extract</text></g><g stroke-linecap="round" transform="translate(20 417) rotate(0 112 30.5)"><path d="M15.25 0 M15.25 0 C69.55 -2.78, 125.87 -2.1, 208.75 0 M15.25 0 C65.03 1.5, 115.52 0.4, 208.75 0 M208.75 0 C220.43 -0.64, 223.7 4.59, 224 15.25 M208.75 0 C216.85 1.06, 222.03 3.21, 224 15.25 M224 15.25 C223.45 22.79, 223.77 27.17, 224 45.75 M224 15.25 C224.87 25.12, 224.17 34.75, 224 45.75 M224 45.75 C225.57 55.28, 218.13 60.29, 208.75 61 M224 45.75 C224.75 57.13, 220.64 62.63, 208.75 61 M208.75 61 C154.86 60.81, 104.56 60.18, 15.25 61 M208.75 61 C140.31 60.77, 70.25 60.83, 15.25 61 M15.25 61 C4.17 60.05, 1.81 57.52, 0 45.75 M15.25 61 C5.48 61.93, -0.46 55.33, 0 45.75 M0 45.75 C1.86 35.58, 1.76 22.43, 0 15.25 M0 45.75 C0.08 34.64, 1.13 25.04, 0 15.25 M0 15.25 C1.99 4.78, 5.93 1.89, 15.25 0 M0 15.25 C-1.85 5.66, 7.07 -1.79, 15.25 0" stroke="#000000" stroke-width="1" fill="none"></path></g><g transform="translate(18 275.5) rotate(0 100.5 23)"><text x="0" y="18" font-family="Helvetica, Segoe UI Emoji" font-size="20px" fill="#000000" text-anchor="start" style="white-space: pre;" direction="ltr">Goal #1: Learn Python</text><text x="0" y="41" font-family="Helvetica, Segoe UI Emoji" font-size="20px" fill="#000000" text-anchor="start" style="white-space: pre;" direction="ltr">Goal #2: Learn SQL</text></g><g transform="translate(22 525.5) rotate(0 452.5 103.5)"><text x="0" y="18" font-family="Helvetica, Segoe UI Emoji" font-size="20px" fill="#000000" text-anchor="start" style="white-space: pre;" direction="ltr">Extract</text><text x="0" y="41" font-family="Helvetica, Segoe UI Emoji" font-size="20px" fill="#000000" text-anchor="start" style="white-space: pre;" direction="ltr"></text><text x="0" y="64" font-family="Helvetica, Segoe UI Emoji" font-size="20px" fill="#000000" text-anchor="start" style="white-space: pre;" direction="ltr">=&gt; extracting data from some source (i.e., the ether)</text><text x="0" y="87" font-family="Helvetica, Segoe UI Emoji" font-size="20px" fill="#000000" text-anchor="start" style="white-space: pre;" direction="ltr">=&gt; getting data from somewhere</text><text x="0" y="110" font-family="Helvetica, Segoe UI Emoji" font-size="20px" fill="#000000" text-anchor="start" style="white-space: pre;" direction="ltr">=&gt; hitting an external API to grab data (something some other fool wrote)</text><text x="0" y="133" font-family="Helvetica, Segoe UI Emoji" font-size="20px" fill="#000000" text-anchor="start" style="white-space: pre;" direction="ltr">=&gt; hitting an external SQL database instance (i.e., SQL Server, MySQL)                  $$$$$$$$$$$$$$$</text><text x="0" y="156" font-family="Helvetica, Segoe UI Emoji" font-size="20px" fill="#000000" text-anchor="start" style="white-space: pre;" direction="ltr">=&gt; hitting an external NoSQL database instance (i.e., mongo)                                   $$$$$$$$$$$$$$$</text><text x="0" y="179" font-family="Helvetica, Segoe UI Emoji" font-size="20px" fill="#000000" text-anchor="start" style="white-space: pre;" direction="ltr">=&gt; hitting some serverless NoSQL technology (Datastore, Firestore, DynamoDB)    $$$$$</text><text x="0" y="202" font-family="Helvetica, Segoe UI Emoji" font-size="20px" fill="#000000" text-anchor="start" style="white-space: pre;" direction="ltr"></text></g><g transform="translate(10 10) rotate(0 203 21)"><text x="0" y="33" font-family="Helvetica, Segoe UI Emoji" font-size="36px" fill="#000000" text-anchor="start" style="white-space: pre;" direction="ltr">DevOps : Predictions API</text></g><g transform="translate(49 769.5) rotate(0 212.5 149.5)"><text x="0" y="18" font-family="Helvetica, Segoe UI Emoji" font-size="20px" fill="#000000" text-anchor="start" style="white-space: pre;" direction="ltr">Extracting from external APIs.</text><text x="0" y="41" font-family="Helvetica, Segoe UI Emoji" font-size="20px" fill="#000000" text-anchor="start" style="white-space: pre;" direction="ltr"></text><text x="0" y="64" font-family="Helvetica, Segoe UI Emoji" font-size="20px" fill="#000000" text-anchor="start" style="white-space: pre;" direction="ltr">Provide some kind of information that you need.</text><text x="0" y="87" font-family="Helvetica, Segoe UI Emoji" font-size="20px" fill="#000000" text-anchor="start" style="white-space: pre;" direction="ltr"></text><text x="0" y="110" font-family="Helvetica, Segoe UI Emoji" font-size="20px" fill="#000000" text-anchor="start" style="white-space: pre;" direction="ltr">Sports APIs = Sportsbooks, Player Stats {}</text><text x="0" y="133" font-family="Helvetica, Segoe UI Emoji" font-size="20px" fill="#000000" text-anchor="start" style="white-space: pre;" direction="ltr">Weather = Weather in the city players play</text><text x="0" y="156" font-family="Helvetica, Segoe UI Emoji" font-size="20px" fill="#000000" text-anchor="start" style="white-space: pre;" direction="ltr"></text><text x="0" y="179" font-family="Helvetica, Segoe UI Emoji" font-size="20px" fill="#000000" text-anchor="start" style="white-space: pre;" direction="ltr">Collect relevant data for further processing.</text><text x="0" y="202" font-family="Helvetica, Segoe UI Emoji" font-size="20px" fill="#000000" text-anchor="start" style="white-space: pre;" direction="ltr"></text><text x="0" y="225" font-family="Helvetica, Segoe UI Emoji" font-size="20px" fill="#000000" text-anchor="start" style="white-space: pre;" direction="ltr">=&gt; usually in a storage bucket (S3, Storage)</text><text x="0" y="248" font-family="Helvetica, Segoe UI Emoji" font-size="20px" fill="#000000" text-anchor="start" style="white-space: pre;" direction="ltr">=&gt; data.json (RAW)</text><text x="0" y="271" font-family="Helvetica, Segoe UI Emoji" font-size="20px" fill="#000000" text-anchor="start" style="white-space: pre;" direction="ltr"></text><text x="0" y="294" font-family="Helvetica, Segoe UI Emoji" font-size="20px" fill="#000000" text-anchor="start" style="white-space: pre;" direction="ltr">GOAL: BALL_DROPPERS algorithm</text></g><g transform="translate(917.5 974.75) rotate(0 46 11.5)"><text x="0" y="18" font-family="Helvetica, Segoe UI Emoji" font-size="20px" fill="#000000" text-anchor="start" style="white-space: pre;" direction="ltr">Transform</text></g><g stroke-linecap="round" transform="translate(874.5 955.75) rotate(0 112 30.5)"><path d="M15.25 0 M15.25 0 C55.08 2.33, 94.73 -0.11, 208.75 0 M15.25 0 C86.25 -0.59, 156.83 -0.76, 208.75 0 M208.75 0 C220.33 1.67, 223.73 6.32, 224 15.25 M208.75 0 C219.68 2.2, 226.04 6.38, 224 15.25 M224 15.25 C225.14 22.39, 222.31 32.87, 224 45.75 M224 15.25 C224.62 27.36, 223.47 38.34, 224 45.75 M224 45.75 C225.61 56.49, 220.11 62.43, 208.75 61 M224 45.75 C223.78 56.61, 216.68 59.43, 208.75 61 M208.75 61 C134.43 61.51, 62.08 62.9, 15.25 61 M208.75 61 C131.73 62.17, 54.93 61.47, 15.25 61 M15.25 61 C5.52 60.85, -1.16 55.78, 0 45.75 M15.25 61 C5.78 61.23, -0.6 55.24, 0 45.75 M0 45.75 C-0.76 39.63, 0.51 33.63, 0 15.25 M0 45.75 C-1.03 34.46, 0.17 24.47, 0 15.25 M0 15.25 C-0.33 4.93, 6.23 1.07, 15.25 0 M0 15.25 C-1.18 4.73, 5.14 1.47, 15.25 0" stroke="#000000" stroke-width="1" fill="none"></path></g><g transform="translate(876.5 1064.25) rotate(0 330 80.5)"><text x="0" y="18" font-family="Helvetica, Segoe UI Emoji" font-size="20px" fill="#000000" text-anchor="start" style="white-space: pre;" direction="ltr">Transform RAW data into Analytical Data Sets (ready for AI/ML/whatever).</text><text x="0" y="41" font-family="Helvetica, Segoe UI Emoji" font-size="20px" fill="#000000" text-anchor="start" style="white-space: pre;" direction="ltr"></text><text x="0" y="64" font-family="Helvetica, Segoe UI Emoji" font-size="20px" fill="#000000" text-anchor="start" style="white-space: pre;" direction="ltr">=&gt; preparing the data for AI / ML / further analysis (i.e., BigQuery)</text><text x="0" y="87" font-family="Helvetica, Segoe UI Emoji" font-size="20px" fill="#000000" text-anchor="start" style="white-space: pre;" direction="ltr">=&gt; sanitizing inappropriate input values (i.e., reg expressions)</text><text x="0" y="110" font-family="Helvetica, Segoe UI Emoji" font-size="20px" fill="#000000" text-anchor="start" style="white-space: pre;" direction="ltr">=&gt; operationalizing the model (i.e., DevOps) </text><text x="0" y="133" font-family="Helvetica, Segoe UI Emoji" font-size="20px" fill="#000000" text-anchor="start" style="white-space: pre;" direction="ltr">    =&gt; what triggers what into what into being deployed (Bellanov does this)</text><text x="0" y="156" font-family="Helvetica, Segoe UI Emoji" font-size="20px" fill="#000000" text-anchor="start" style="white-space: pre;" direction="ltr"></text></g><g transform="translate(1607 688.75) rotate(0 23.5 11.5)"><text x="0" y="18" font-family="Helvetica, Segoe UI Emoji" font-size="20px" fill="#000000" text-anchor="start" style="white-space: pre;" direction="ltr">Load</text></g><g stroke-linecap="round" transform="translate(1564 669.75) rotate(0 112 30.5)"><path d="M15.25 0 M15.25 0 C79.36 -2.03, 140.73 -0.43, 208.75 0 M15.25 0 C76.72 0.77, 137.37 1.37, 208.75 0 M208.75 0 C217.74 0.55, 225.7 5.32, 224 15.25 M208.75 0 C219.63 -2.03, 222.12 6.11, 224 15.25 M224 15.25 C223.23 20.03, 222.93 30.3, 224 45.75 M224 15.25 C223.78 21.94, 222.72 28.3, 224 45.75 M224 45.75 C223.75 55.38, 220.26 62.37, 208.75 61 M224 45.75 C223.31 56.24, 220.61 62.23, 208.75 61 M208.75 61 C163.09 60.05, 119.65 58.94, 15.25 61 M208.75 61 C139.42 62.5, 70.15 61.05, 15.25 61 M15.25 61 C4.21 62.68, -0.7 56.7, 0 45.75 M15.25 61 C7.02 63.3, -0.49 54.57, 0 45.75 M0 45.75 C-1.14 38.25, 0.42 31.52, 0 15.25 M0 45.75 C0.9 35.5, -0.31 23.48, 0 15.25 M0 15.25 C0.03 3.19, 4.09 -0.39, 15.25 0 M0 15.25 C-0.47 4.44, 4.81 -0.22, 15.25 0" stroke="#000000" stroke-width="1" fill="none"></path></g><g transform="translate(1566 778.25) rotate(0 369.5 57.5)"><text x="0" y="18" font-family="Helvetica, Segoe UI Emoji" font-size="20px" fill="#000000" text-anchor="start" style="white-space: pre;" direction="ltr">Transform RAW data into Analytical Data Sets (ready for AI/ML/whatever).</text><text x="0" y="41" font-family="Helvetica, Segoe UI Emoji" font-size="20px" fill="#000000" text-anchor="start" style="white-space: pre;" direction="ltr"></text><text x="0" y="64" font-family="Helvetica, Segoe UI Emoji" font-size="20px" fill="#000000" text-anchor="start" style="white-space: pre;" direction="ltr">=&gt; deploying Analytical Data sets into production (i.e., BigQuery)</text><text x="0" y="87" font-family="Helvetica, Segoe UI Emoji" font-size="20px" fill="#000000" text-anchor="start" style="white-space: pre;" direction="ltr">=&gt; more things that triggers what into what into being deployed (Bellanov does this)</text><text x="0" y="110" font-family="Helvetica, Segoe UI Emoji" font-size="20px" fill="#000000" text-anchor="start" style="white-space: pre;" direction="ltr"></text></g><g transform="translate(634.8548185842105 218.119172213429) rotate(0 243.5 27)"><text x="0" y="43" font-family="Helvetica, Segoe UI Emoji" font-size="46.44410166707462px" fill="#000000" text-anchor="start" style="white-space: pre;" direction="ltr">BALL_DROPPERS API</text></g><g stroke-linecap="round" transform="translate(535 193.99727562970816) rotate(0 367.3181423265446 70.82725504228881)"><path d="M32 0 M32 0 C267.75 -1.53, 505.27 -1.5, 702.64 0 M32 0 C284.24 1.4, 537.45 0.83, 702.64 0 M702.64 0 C725.19 -1.65, 734.02 11, 734.64 32 M702.64 0 C723.1 -0.96, 733.29 10.94, 734.64 32 M734.64 32 C735.26 59.23, 732.87 87.89, 734.64 109.65 M734.64 32 C734.44 62.31, 734.52 92.25, 734.64 109.65 M734.64 109.65 C734.09 131.71, 722.51 143.53, 702.64 141.65 M734.64 109.65 C734.61 132.98, 722.49 139.52, 702.64 141.65 M702.64 141.65 C451.86 143.89, 202.5 142.99, 32 141.65 M702.64 141.65 C527.92 140.58, 353.19 140.27, 32 141.65 M32 141.65 C9.19 143.3, -0.02 130.15, 0 109.65 M32 141.65 C9.7 142.01, 0.98 132.63, 0 109.65 M0 109.65 C-1.49 91, -1.39 76.06, 0 32 M0 109.65 C-0.79 78.9, -0.96 48.21, 0 32 M0 32 C-1.44 9.58, 9.96 -0.9, 32 0 M0 32 C0.19 10.19, 9.24 -0.83, 32 0" stroke="#000000" stroke-width="1" fill="none"></path></g><g transform="translate(643 283.5) rotate(0 143.5 11.5)"><text x="0" y="18" font-family="Helvetica, Segoe UI Emoji" font-size="20px" fill="#000000" text-anchor="start" style="white-space: pre;" direction="ltr">Are these n****s dropping balls?</text></g><g stroke-linecap="round"><g transform="translate(582 803.5) rotate(0 75.29767510466274 39.88190224237741)"><path d="M-0.02 -0.46 C24.84 13.26, 124.79 68.05, 149.93 81.51 M-1.49 -1.75 C23.67 11.69, 126.84 65.82, 152.09 79.66" stroke="#000000" stroke-width="1" fill="none"></path></g><g transform="translate(582 803.5) rotate(0 75.29767510466274 39.88190224237741)"><path d="M121.62 73.64 C133.98 76.66, 142.75 78.32, 153.02 77.84 M123.13 75.65 C132.9 77.75, 145.2 78.95, 152.41 79.26" stroke="#000000" stroke-width="1" fill="none"></path></g><g transform="translate(582 803.5) rotate(0 75.29767510466274 39.88190224237741)"><path d="M131.3 55.54 C140.02 65.12, 145.29 73.34, 153.02 77.84 M132.81 57.55 C139 66.47, 147.62 74.54, 152.41 79.26" stroke="#000000" stroke-width="1" fill="none"></path></g></g><mask></mask><g stroke-linecap="round"><g transform="translate(1245 940.5) rotate(0 76.72231505535547 -52.61795481853187)"><path d="M-0.8 -0.2 C24.35 -17.64, 126.58 -87.59, 152.04 -105.04 M0.98 -1.34 C26.4 -18.55, 128.69 -86.49, 154.25 -103.52" stroke="#000000" stroke-width="1" fill="none"></path></g><g transform="translate(1245 940.5) rotate(0 76.72231505535547 -52.61795481853187)"><path d="M136.14 -80.97 C143.45 -90.45, 150.65 -96.32, 154.26 -103.89 M137.29 -78.72 C143.52 -87.59, 148.84 -97.94, 153.64 -104.14" stroke="#000000" stroke-width="1" fill="none"></path></g><g transform="translate(1245 940.5) rotate(0 76.72231505535547 -52.61795481853187)"><path d="M124.77 -98.05 C136.49 -100.75, 148.16 -99.91, 154.26 -103.89 M125.92 -95.8 C136.31 -98.38, 145.87 -102.35, 153.64 -104.14" stroke="#000000" stroke-width="1" fill="none"></path></g></g><mask></mask></svg>